<svg width="392" height="91" viewBox="0 0 392 91" fill="none" xmlns="http://www.w3.org/2000/svg">
<mask id="mask0_1188_4617" style="mask-type:alpha" maskUnits="userSpaceOnUse" x="0" y="0" width="90" height="91">
<path d="M45 0.86377L58.7766 12.6041L76.8198 14.044L78.2597 32.0872L90 45.8638L78.2597 59.6404L76.8198 77.6836L58.7766 79.1234L45 90.8638L31.2234 79.1234L13.1802 77.6836L11.7403 59.6404L0 45.8638L11.7403 32.0872L13.1802 14.044L31.2234 12.6041L45 0.86377Z" fill="#D9D9D9"/>
</mask>
<g mask="url(#mask0_1188_4617)">
<rect x="-3.70151" y="-11.4692" width="98.6301" height="115.89" fill="#0D0D0E"/>
<g filter="url(#filter0_f_1188_4617)">
<path d="M580.658 -372.208C424.386 -189.319 -16.8187 154.581 -531.464 67.0645C-354.482 246.606 115.718 410.109 580.658 -372.208Z" fill="#002E48"/>
</g>
<g filter="url(#filter1_f_1188_4617)">
<path d="M467.09 -283.356C340.354 -135.017 -17.4713 143.908 -434.88 72.8978C-291.33 218.536 90.0344 351.179 467.09 -283.356Z" fill="#0072A3"/>
</g>
<g filter="url(#filter2_f_1188_4617)">
<path d="M467.092 -283.355C340.356 -135.016 -1.86749 196.369 -434.878 72.8984C-291.328 218.537 98.2701 322.092 467.092 -283.355Z" fill="#00C2CE"/>
</g>
<g filter="url(#filter3_f_1188_4617)">
<path d="M521.05 -305.845C371.834 -151.968 -25.8576 196.262 -487.989 108.922C-342.706 239.724 73.6629 310.976 521.05 -305.845Z" fill="#EF6619"/>
</g>
<g filter="url(#filter4_f_1188_4617)">
<path d="M467.092 -283.354C340.356 -135.015 8.77799 231.968 -434.878 72.8995C-294.903 183.785 91.7514 302.782 467.092 -283.354Z" fill="#CF7154"/>
</g>
<g filter="url(#filter5_f_1188_4617)">
<path d="M467.091 -283.355C340.355 -135.016 27.4667 280.507 -434.879 72.8987C-242.848 187.896 97.2877 227.207 467.091 -283.355Z" fill="#F1F9A0"/>
</g>
</g>
<path d="M183.31 74.8638H173.68V14.5638H183.31V74.8638ZM138.22 74.8638H128.5V14.5638H138.22V74.8638ZM178.45 48.8538H131.65V40.1238H178.45V48.8538ZM198.696 74.8638H187.896L214.806 14.5638H228.486L255.396 74.8638H244.416L225.426 32.1138L221.916 23.5638H221.196L217.686 32.1138L198.696 74.8638ZM241.446 59.2038H201.216V50.4738H241.446V59.2038ZM289.506 75.7638C283.206 75.7638 277.686 74.5038 272.946 71.9838C268.266 69.4038 264.606 65.8038 261.966 61.1838C259.386 56.5038 258.096 51.0138 258.096 44.7138C258.096 38.4138 259.386 32.9538 261.966 28.3338C264.606 23.6538 268.266 20.0538 272.946 17.5338C277.686 14.9538 283.206 13.6638 289.506 13.6638C295.926 13.6638 301.476 14.9538 306.156 17.5338C310.836 20.0538 314.466 23.6538 317.046 28.3338C319.686 32.9538 321.006 38.4138 321.006 44.7138C321.006 51.0138 319.686 56.5038 317.046 61.1838C314.466 65.8038 310.836 69.4038 306.156 71.9838C301.476 74.5038 295.926 75.7638 289.506 75.7638ZM309.306 87.5538H297.066L282.756 68.2938H293.646L309.306 87.5538ZM289.506 66.4038C294.246 66.4038 298.176 65.6538 301.296 64.1538C304.476 62.5938 306.846 60.2238 308.406 57.0438C309.966 53.8038 310.746 49.6938 310.746 44.7138C310.746 39.6738 309.966 35.5638 308.406 32.3838C306.846 29.2038 304.476 26.8638 301.296 25.3638C298.176 23.8038 294.246 23.0238 289.506 23.0238C284.766 23.0238 280.806 23.8038 277.626 25.3638C274.506 26.8638 272.166 29.2038 270.606 32.3838C269.106 35.5638 268.356 39.6738 268.356 44.7138C268.356 49.6938 269.106 53.8038 270.606 57.0438C272.166 60.2238 274.506 62.5938 277.626 64.1538C280.806 65.6538 284.766 66.4038 289.506 66.4038ZM357.798 75.7638C351.498 75.7638 345.978 74.5038 341.238 71.9838C336.558 69.4038 332.898 65.8038 330.258 61.1838C327.678 56.5038 326.388 51.0138 326.388 44.7138C326.388 38.4138 327.678 32.9538 330.258 28.3338C332.898 23.6538 336.558 20.0538 341.238 17.5338C345.978 14.9538 351.498 13.6638 357.798 13.6638C364.218 13.6638 369.768 14.9538 374.448 17.5338C379.128 20.0538 382.758 23.6538 385.338 28.3338C387.978 32.9538 389.298 38.4138 389.298 44.7138C389.298 51.0138 387.978 56.5038 385.338 61.1838C382.758 65.8038 379.128 69.4038 374.448 71.9838C369.768 74.5038 364.218 75.7638 357.798 75.7638ZM377.598 87.5538H365.358L351.048 68.2938H361.938L377.598 87.5538ZM357.798 66.4038C362.538 66.4038 366.468 65.6538 369.588 64.1538C372.768 62.5938 375.138 60.2238 376.698 57.0438C378.258 53.8038 379.038 49.6938 379.038 44.7138C379.038 39.6738 378.258 35.5638 376.698 32.3838C375.138 29.2038 372.768 26.8638 369.588 25.3638C366.468 23.8038 362.538 23.0238 357.798 23.0238C353.058 23.0238 349.098 23.8038 345.918 25.3638C342.798 26.8638 340.458 29.2038 338.898 32.3838C337.398 35.5638 336.648 39.6738 336.648 44.7138C336.648 49.6938 337.398 53.8038 338.898 57.0438C340.458 60.2238 342.798 62.5938 345.918 64.1538C349.098 65.6538 353.058 66.4038 357.798 66.4038Z" fill="#0D0D0E"/>
<defs>
<filter id="filter0_f_1188_4617" x="-552.554" y="-393.298" width="1154.3" height="630.309" filterUnits="userSpaceOnUse" color-interpolation-filters="sRGB">
<feFlood flood-opacity="0" result="BackgroundImageFix"/>
<feBlend mode="normal" in="SourceGraphic" in2="BackgroundImageFix" result="shape"/>
<feGaussianBlur stdDeviation="10.545" result="effect1_foregroundBlur_1188_4617"/>
</filter>
<filter id="filter1_f_1188_4617" x="-455.97" y="-304.446" width="944.15" height="519.191" filterUnits="userSpaceOnUse" color-interpolation-filters="sRGB">
<feFlood flood-opacity="0" result="BackgroundImageFix"/>
<feBlend mode="normal" in="SourceGraphic" in2="BackgroundImageFix" result="shape"/>
<feGaussianBlur stdDeviation="10.545" result="effect1_foregroundBlur_1188_4617"/>
</filter>
<filter id="filter2_f_1188_4617" x="-455.968" y="-304.445" width="944.15" height="510.384" filterUnits="userSpaceOnUse" color-interpolation-filters="sRGB">
<feFlood flood-opacity="0" result="BackgroundImageFix"/>
<feBlend mode="normal" in="SourceGraphic" in2="BackgroundImageFix" result="shape"/>
<feGaussianBlur stdDeviation="10.545" result="effect1_foregroundBlur_1188_4617"/>
</filter>
<filter id="filter3_f_1188_4617" x="-532.512" y="-350.368" width="1098.09" height="592.711" filterUnits="userSpaceOnUse" color-interpolation-filters="sRGB">
<feFlood flood-opacity="0" result="BackgroundImageFix"/>
<feBlend mode="normal" in="SourceGraphic" in2="BackgroundImageFix" result="shape"/>
<feGaussianBlur stdDeviation="22.2616" result="effect1_foregroundBlur_1188_4617"/>
</filter>
<filter id="filter4_f_1188_4617" x="-455.968" y="-304.444" width="944.15" height="489.77" filterUnits="userSpaceOnUse" color-interpolation-filters="sRGB">
<feFlood flood-opacity="0" result="BackgroundImageFix"/>
<feBlend mode="normal" in="SourceGraphic" in2="BackgroundImageFix" result="shape"/>
<feGaussianBlur stdDeviation="10.545" result="effect1_foregroundBlur_1188_4617"/>
</filter>
<filter id="filter5_f_1188_4617" x="-455.969" y="-304.445" width="944.15" height="471.082" filterUnits="userSpaceOnUse" color-interpolation-filters="sRGB">
<feFlood flood-opacity="0" result="BackgroundImageFix"/>
<feBlend mode="normal" in="SourceGraphic" in2="BackgroundImageFix" result="shape"/>
<feGaussianBlur stdDeviation="10.545" result="effect1_foregroundBlur_1188_4617"/>
</filter>
</defs>
</svg>
